<svg id="Objects" xmlns="http://www.w3.org/2000/svg" viewBox="0 0 450.51 445.94">
    <title>wlcome</title>
    <circle cx="332.94" cy="130.02" r="109.96" style="fill:#407bff;opacity:0.07" />
    <path
        d="M513.67,278.17c-4,3.9-5.59,10-1.73,14.64a11.35,11.35,0,0,0,15.24,1.83c11-8.48-.46-24.12-12.31-20.88-2.2.6-1.65,3.73.52,3.85,3.46.2,7.17.33,9.94,2.76a7.21,7.21,0,0,1,.6,10c-6.46,7.94-17.68-3.75-10.9-10.86a1,1,0,0,0-1.36-1.36Z"
        transform="translate(-150.25 -30.97)" style="fill:#8aa9fc" />
    <path
        d="M317.26,214.09c-1.54-1.63-3.23-2.88-4-5.06-1.53-4.34,1.4-6.5,4.84-8.11s6.34-3.57,7.38-7.53c1.62-6.19-3.65-13.82-10.38-12-2.19.6-1.54,3.38,0,4.24,2.08,1.2,4.87,1.89,5.22,4.76.47,3.84-3.31,4.94-6,6.32a11.34,11.34,0,0,0-5.93,6.92c-1.56,5.42,1.68,12.78,8,12.47a1.28,1.28,0,0,0,.87-2Z"
        transform="translate(-150.25 -30.97)" style="fill:#6e3281" />
    <path
        d="M367.41,301.3c.56,3.59,4.28,11.18,8.21,12.23,2.09.56,3.64-.81,5.26-1.93,2.95-2,5.86-4.11,8.78-6.19a2.56,2.56,0,0,0,.9-3.43l-7.74-11.91a2.54,2.54,0,0,0-3.43-.9c-3.22,2.28-6.7,4.38-9.61,7.05-2,1.84.55,4.85,2.82,3.65,3.29-1.74,6.28-4.22,9.32-6.37l-3.43-.9,7.74,11.91.9-3.43-5.25,3.74c-1,.71-4.3,3.81-5.4,3.69s-3.05-3.62-3.66-4.34a19.91,19.91,0,0,0-4-3.95c-.78-.53-1.53.34-1.42,1.08Z"
        transform="translate(-150.25 -30.97)" style="fill:#edc483" />
    <path
        d="M545.55,138.2c.55,3.59,4.28,11.19,8.2,12.23,2.09.56,3.64-.81,5.27-1.93,3-2,5.86-4.11,8.78-6.19a2.53,2.53,0,0,0,.89-3.42L561,127a2.53,2.53,0,0,0-3.42-.9c-3.22,2.28-6.71,4.38-9.61,7.05-2,1.84.55,4.85,2.81,3.65,3.3-1.74,6.28-4.22,9.32-6.37l-3.42-.9,7.74,11.91.9-3.42c-1.75,1.24-3.51,2.48-5.25,3.74-1,.71-4.3,3.8-5.4,3.68s-3.06-3.62-3.66-4.34a20.23,20.23,0,0,0-4-3.95c-.77-.53-1.53.34-1.41,1.08Z"
        transform="translate(-150.25 -30.97)" style="fill:#edc483" />
    <path
        d="M560.87,202.91c-6.71,3.11-13.31,6.41-19.89,9.79a2.22,2.22,0,0,0-.61,3.75c4.83,5,9.59,10,14.77,14.62a2,2,0,0,0,3.13-.76c3.22-7,8.11-16.61,6.77-24.58-.34-2-3.44-2.94-4.26-.69-1.3,3.54-1.29,7.51-2.12,11.19a58.44,58.44,0,0,1-4.1,12.43l3.5-.37C553.33,223,548.22,218,543.11,213l-.09,3.48c6.46-3.62,12.85-7.3,19.16-11.17,1.33-.82.12-3.11-1.31-2.44Z"
        transform="translate(-150.25 -30.97)" style="fill:#e3707f" />
    <path
        d="M436.59,295.42a125.06,125.06,0,0,0,13.59-17.66c1.2-2-1.76-4.2-3.27-2.42a123.44,123.44,0,0,0-12.52,18.45,1.39,1.39,0,0,0,2.2,1.63Z"
        transform="translate(-150.25 -30.97)" style="fill:#e3707f" />
    <path
        d="M599.55,102.82l-.37-.33a4.18,4.18,0,1,0-5.91,5.9l.33.37a4.22,4.22,0,0,0,5.95,0c1.46-1.59,1.76-4.39,0-5.94Z"
        transform="translate(-150.25 -30.97)" style="fill:#251a51" />
    <path
        d="M408.42,259.66l-.37-.33a4.18,4.18,0,0,0-5.91,5.9l.33.38a4.24,4.24,0,0,0,5.95,0c1.46-1.6,1.76-4.39,0-5.95Z"
        transform="translate(-150.25 -30.97)" style="fill:#251a51" />
    <polygon
        points="285.58 10.21 285.58 48.43 260.05 48.43 259.23 62.92 244.23 47.59 188 47.59 192.95 7.39 285.58 10.21"
        style="fill:#407bff" />
    <path
        d="M427.1,52.25c-25.12-.33-50.37-.59-75.49-.06a.15.15,0,0,0,0,.29c25.12.54,50.37.28,75.49-.06a.09.09,0,0,0,0-.17Z"
        transform="translate(-150.25 -30.97)" style="fill:#e4e1ea" />
    <path
        d="M427.1,59.59c-25.12-.33-50.37-.59-75.49-.06a.15.15,0,0,0,0,.29c25.12.53,50.37.27,75.49-.06a.09.09,0,0,0,0-.17Z"
        transform="translate(-150.25 -30.97)" style="fill:#e4e1ea" />
    <path
        d="M427.1,67.33c-15.43-.25-31-.41-46.39-.06a.15.15,0,0,0,0,.29c15.42.34,31,.19,46.39-.06a.09.09,0,0,0,0-.17Z"
        transform="translate(-150.25 -30.97)" style="fill:#e4e1ea" />
    <path
        d="M486.23,312.78a128.62,128.62,0,0,0,3.19-22.07c.1-2.27-3.6-2.84-4-.54a128.5,128.5,0,0,0-1.88,22.24,1.39,1.39,0,0,0,2.71.37Z"
        transform="translate(-150.25 -30.97)" style="fill:#e8947e" />
    <path
        d="M523.73,337.24l-.37-.33a4.18,4.18,0,1,0-5.91,5.91l.33.37a4.24,4.24,0,0,0,6,0c1.46-1.6,1.76-4.39,0-5.95Z"
        transform="translate(-150.25 -30.97)" style="fill:#251a51" />
    <circle cx="329.44" cy="366.95" r="109.96" transform="translate(-313.23 309.46) rotate(-45)"
        style="fill:#407bff;opacity:0.07" />
    <path
        d="M411.1,406.6c.33-2.21.26-4.32,1.5-6.27,2.47-3.89,6-2.91,9.37-1.2s6.72,2.79,10.48,1.16c5.87-2.54,8.63-11.4,3-15.57-1.82-1.35-3.61.88-3.36,2.59.34,2.38,1.52,5-.52,7.05-2.73,2.74-5.93.44-8.66-.79a11.28,11.28,0,0,0-9.1-.39c-5.23,2.11-9,9.2-4.87,14a1.28,1.28,0,0,0,2.13-.56Z"
        transform="translate(-150.25 -30.97)" style="fill:#6e3281" />
    <path
        d="M451.05,322.54c-4.06,3.9-5.6,10-1.73,14.64A11.35,11.35,0,0,0,464.56,339c11-8.48-.47-24.12-12.32-20.88-2.19.6-1.64,3.73.52,3.85,3.47.2,7.18.33,9.95,2.76a7.21,7.21,0,0,1,.6,10c-6.46,7.94-17.68-3.75-10.9-10.86a1,1,0,0,0-1.36-1.36Z"
        transform="translate(-150.25 -30.97)" style="fill:#e3707f" />
    <path
        d="M280.34,314.8c-4.06,3.9-5.6,10-1.73,14.64a11.36,11.36,0,0,0,15.24,1.83c11-8.48-.47-24.12-12.32-20.88-2.19.6-1.65,3.72.52,3.85,3.47.2,7.18.33,9.94,2.76a7.2,7.2,0,0,1,.6,10c-6.46,7.94-17.68-3.76-10.89-10.86a1,1,0,0,0-1.36-1.36Z"
        transform="translate(-150.25 -30.97)" style="fill:#8aa9fc" />
    <path
        d="M251.82,435.55c2.8,10.36,5.87,20.62,9.07,30.87a3.24,3.24,0,0,0,5.22,1.8c8.33-5.66,16.67-11.23,24.56-17.5a3,3,0,0,0-.31-4.66c-9.25-6.35-21.73-15.71-33.46-15.78-3,0-5.07,4.19-2,5.93,4.73,2.73,10.4,3.7,15.46,5.8A85.08,85.08,0,0,1,287.08,451c.12-1.7.23-3.4.35-5.1-8.82,5.43-17.13,11.52-25.52,17.59l4.95,1c-3.57-10.12-7.25-20.18-11.22-30.16-.84-2.1-4.41-.95-3.82,1.27Z"
        transform="translate(-150.25 -30.97)" style="fill:#e3707f" />
    <path
        d="M219.06,369.06a128.83,128.83,0,0,0,22.19,1.45c2.69-.09,2.59-3.83,0-4.1a126.19,126.19,0,0,0-21.82-.06c-1.44.1-2,2.48-.37,2.71Z"
        transform="translate(-150.25 -30.97)" style="fill:#edc483" />
    <path
        d="M267.59,357.18l-.37-.33a4.17,4.17,0,1,0-5.9,5.9l.33.37a4.21,4.21,0,0,0,5.94,0c1.47-1.59,1.76-4.39,0-5.94Z"
        transform="translate(-150.25 -30.97)" style="fill:#251a51" />
    <path
        d="M461,155.59,442.22,148s-24.76,45.16-31.86,47.44c-9.65,3.1-29.61,11.73-41.47,13.35-1.6,1.86-4.24,7.76-4,9.91,15.92,5.3,50.88-1.74,58.36-7.3C440.32,198.71,461,155.59,461,155.59Z"
        transform="translate(-150.25 -30.97)" style="fill:#e58a7b" />
    <path
        d="M466.76,145.34c3.49,12.94-15.46,38.93-15.46,38.93l-24.9-14s4.64-10.68,10.32-21.56C445.9,131.17,462.78,130.57,466.76,145.34Z"
        transform="translate(-150.25 -30.97)" style="fill:#407bff" />
    <path
        d="M466.76,145.34c3.49,12.94-15.46,38.93-15.46,38.93l-24.9-14s4.64-10.68,10.32-21.56C445.9,131.17,462.78,130.57,466.76,145.34Z"
        transform="translate(-150.25 -30.97)" style="opacity:0.2" />
    <path d="M436.33,175.86l9.78,5.48,1.71-30C442.14,155.7,438.12,168.86,436.33,175.86Z"
        transform="translate(-150.25 -30.97)" style="opacity:0.2" />
    <path
        d="M450.42,135.59s-19.33,43-8.06,123.12h76.19c1.21-11.7-2.8-68.75,11.71-123.85A194.08,194.08,0,0,0,505,131.64c-9.71-.47-23.78-.78-32.39,0A148,148,0,0,0,450.42,135.59Z"
        transform="translate(-150.25 -30.97)" style="fill:#407bff" />
    <path
        d="M450.42,135.59s-19.33,43-8.06,123.12h76.19c1.21-11.7-2.8-68.75,11.71-123.85A194.08,194.08,0,0,0,505,131.64c-9.71-.47-23.78-.78-32.39,0A148,148,0,0,0,450.42,135.59Z"
        transform="translate(-150.25 -30.97)" style="opacity:0.2" />
    <path d="M371.29,208.63,355.61,202l-6.45,17.36a64.56,64.56,0,0,0,19.38,0Z"
        transform="translate(-150.25 -30.97)" style="fill:#e58a7b" />
    <polygon points="193.72 170.64 193.3 182.19 198.91 188.43 205.36 171.06 193.72 170.64"
        style="fill:#e58a7b" />
    <path
        d="M439.94,237c.28,3.42.61,6.92,1,10.52l56.66-18.39a40.66,40.66,0,0,0,21.79-15.81c.21-5.05.5-10.36.93-15.9.2-2.7.43-5.46.68-8.26s.59-5.89.94-8.89Z"
        transform="translate(-150.25 -30.97)" style="opacity:0.2" />
    <path
        d="M458.44,175l-1.93-.23c1.12-9.44,8.17-16.9,15.62-16.72l-.06,1.94C465.64,159.8,459.45,166.52,458.44,175Z"
        transform="translate(-150.25 -30.97)" style="fill:#fff" />
    <path
        d="M468.52,192.46h-.32l.06-2c6.5.24,12.61-6.54,13.63-15l1.92.23C482.71,185,475.88,192.46,468.52,192.46Z"
        transform="translate(-150.25 -30.97)" style="fill:#fff" />
    <path
        d="M503.88,95.17c-2.66,10.42-5.81,29.52,1.07,36.47,0,0-4.81,10.57-24.17,10.57-17.7,0-8.22-10.57-8.22-10.57,11.78-2.78,12-11.4,10.44-19.49Z"
        transform="translate(-150.25 -30.97)" style="fill:#e58a7b" />
    <path
        d="M495.37,102.1l-12.36,10a32.39,32.39,0,0,1,.66,5.75c3.61,3.59,10.86-5.52,11.61-10.17A15.64,15.64,0,0,0,495.37,102.1Z"
        transform="translate(-150.25 -30.97)" style="fill:#cf6f64" />
    <path
        d="M461.78,95a12.42,12.42,0,0,0,8,5.94c4.54,1,6.83-3.17,5.57-7.38-1.12-3.78-4.84-8.87-9.41-8A6.3,6.3,0,0,0,461.78,95Z"
        transform="translate(-150.25 -30.97)" style="fill:#cf6f64" />
    <path d="M469.27,61.69C462.2,64.93,459.7,93,468.6,97.2S482.67,55.55,469.27,61.69Z"
        transform="translate(-150.25 -30.97)" style="fill:#263238" />
    <path
        d="M506,79.49c-1.7,14.11-2,22.41-9.53,29.66-11.35,10.89-28.39,4.43-30.93-9.66-2.29-12.67.86-33.62,15-39.23C494.52,54.72,507.73,65.38,506,79.49Z"
        transform="translate(-150.25 -30.97)" style="fill:#e58a7b" />
    <path
        d="M482.79,69c10.47-2.67,18.17-4.5,15.42,4.24-3.66,11.64-8,22.91-2.16,23.44,3.58.32,19.48-6.43,17.46-13.25-1.76-5.94,5.63-7.54,7-10.57,4.91-10.91-9.11-9.49-6.61-16.09,2.42-6.43-11.3-17.29-18.9-12-12.31,8.59-33.46,8.47-22.34-5.62,8-10.1-6.24-8-6.24-8s8.58,5.09-5.87,13C445.23,52.45,459.25,75,482.79,69Z"
        transform="translate(-150.25 -30.97)" style="fill:#263238" />
    <path
        d="M511.5,95a14.57,14.57,0,0,1-8.72,5.94c-4.67,1-6.46-3.17-4.71-7.38,1.57-3.78,5.89-8.87,10.35-8S514,91.33,511.5,95Z"
        transform="translate(-150.25 -30.97)" style="fill:#e58a7b" />
    <path
        d="M484.4,83.43c-.06,1.15-.73,2.08-1.48,2.08s-1.3-.93-1.24-2.08.73-2.08,1.49-2.08S484.47,82.29,484.4,83.43Z"
        transform="translate(-150.25 -30.97)" style="fill:#263238" />
    <path
        d="M471.42,83.43c-.07,1.15-.73,2.08-1.48,2.08s-1.31-.93-1.24-2.08.73-2.08,1.48-2.08S471.48,82.29,471.42,83.43Z"
        transform="translate(-150.25 -30.97)" style="fill:#263238" />
    <path d="M475.51,84s-3,6.62-6.06,9.82c1.92,1.9,5.43,1,5.43,1Z"
        transform="translate(-150.25 -30.97)" style="fill:#df5753" />
    <path
        d="M475.84,99.68a.32.32,0,0,1-.32-.34.38.38,0,0,1,.36-.33,9.75,9.75,0,0,0,7.63-3.56.34.34,0,0,1,.47-.1.33.33,0,0,1,.07.47A10.32,10.32,0,0,1,475.84,99.68Z"
        transform="translate(-150.25 -30.97)" style="fill:#263238" />
    <path
        d="M486.71,79.94a.68.68,0,0,1-.59,0,5.31,5.31,0,0,0-4.82-.5.65.65,0,0,1-.88-.32.69.69,0,0,1,.37-.9,6.63,6.63,0,0,1,6.09.57.65.65,0,0,1,.18.92A.73.73,0,0,1,486.71,79.94Z"
        transform="translate(-150.25 -30.97)" style="fill:#263238" />
    <path
        d="M466.4,76.17a.61.61,0,0,1-.26-.15.67.67,0,0,1,0-1A7,7,0,0,1,472,72.72a.63.63,0,0,1,.52.77.72.72,0,0,1-.79.57h0A5.61,5.61,0,0,0,467.09,76,.72.72,0,0,1,466.4,76.17Z"
        transform="translate(-150.25 -30.97)" style="fill:#263238" />
    <path
        d="M537.57,153.48l-19.68-5.24s-19.29,47.5-26.11,50.6C482.51,203.06,459,217.66,449,224.7c-.56,2.35-.12,8.63,1.14,10.33,17-3.08,49.62-15.63,56.43-22C522.13,198.47,537.57,153.48,537.57,153.48Z"
        transform="translate(-150.25 -30.97)" style="fill:#e58a7b" />
    <path d="M450.64,223.58l-19.73,9.08-2.29,5.57,7.3,4.91s13.6-1.49,17.48-10.23Z"
        transform="translate(-150.25 -30.97)" style="fill:#e58a7b" />
    <path d="M451.48,235.36c-1.23-7.33-3.64-10.68-3.67-10.71l3.11-2.33c.13.16,3,4,4.4,12.39Z"
        transform="translate(-150.25 -30.97)" style="fill:#263238" />
    <path
        d="M454.84,226.27c.64,1.58-.39,3.49-2.3,4.26s-4,.11-4.61-1.47.39-3.49,2.3-4.26S454.2,224.68,454.84,226.27Z"
        transform="translate(-150.25 -30.97)" style="fill:#263238" />
    <polygon points="267.33 209.03 269.95 211.68 287.66 204.11 280.66 201.69 267.33 209.03"
        style="fill:#e58a7b" />
    <path
        d="M542.7,148c5.21,16.78-15.05,39.7-15.05,39.7l-28.09-11.47a288.26,288.26,0,0,1,11.49-28.51C519.61,129.19,537.45,131.1,542.7,148Z"
        transform="translate(-150.25 -30.97)" style="fill:#407bff" />
    <path
        d="M542.7,148c5.21,16.78-15.05,39.7-15.05,39.7l-28.09-11.47a288.26,288.26,0,0,1,11.49-28.51C519.61,129.19,537.45,131.1,542.7,148Z"
        transform="translate(-150.25 -30.97)" style="opacity:0.2" />
    <polygon
        points="106.56 198.75 106.56 227.07 87.64 227.07 87.03 237.81 75.92 226.45 34.26 226.45 37.92 196.66 106.56 198.75"
        style="fill:#407bff;opacity:0.8" />
    <path
        d="M254.33,237.33c-19.59-.28-39.29-.49-58.88-.06a.15.15,0,0,0,0,.29c19.59.44,39.29.23,58.88-.06a.09.09,0,0,0,0-.17Z"
        transform="translate(-150.25 -30.97)" style="fill:#e4e1ea" />
    <path
        d="M254.33,243.06c-19.59-.29-39.29-.5-58.88-.06a.14.14,0,0,0,0,.28c19.59.44,39.29.23,58.88-.05a.09.09,0,0,0,0-.17Z"
        transform="translate(-150.25 -30.97)" style="fill:#e4e1ea" />
    <path
        d="M254.33,249.09c-12-.22-24.16-.33-36.18-.06a.15.15,0,0,0,0,.29c12,.27,24.15.16,36.18-.06a.09.09,0,0,0,0-.17Z"
        transform="translate(-150.25 -30.97)" style="fill:#e4e1ea" />
    <path
        d="M387.67,365.58l.72.85.95,1.09c.69.73,1.34,1.49,2.09,2.2,1.43,1.5,3,2.94,4.55,4.42a120.77,120.77,0,0,0,9.89,8.17c3.49,2.6,7.17,5,10.86,7.35,2,1.11,3.77,2.29,5.71,3.36l4.5,2.49a3,3,0,0,0,2.07.12c1.44-.43,9.77-8.67,12.42-11.72,5.87-6.74,14.78-15.59,19.57-23.13l5.47,7.39a121.52,121.52,0,0,1-13.39,26.17,59,59,0,0,1-10.55,11.82A30,30,0,0,1,434.4,411a19.06,19.06,0,0,1-14.72-.11l-1.86-.81-3.35-1.53c-2.26-1-4.43-2.19-6.63-3.3a133.38,133.38,0,0,1-12.75-7.72,129.15,129.15,0,0,1-11.9-9.23c-2-1.71-3.73-3.45-5.53-5.34-.9-.93-1.79-1.91-2.67-2.92l-1.29-1.57c-.46-.59-.81-1-1.46-1.91Z"
        transform="translate(-150.25 -30.97)" style="fill:#ffb573" />
    <path d="M460.26,361.92l9.61-20.54L479,357.81s-6,10.38-12.57,10.36Z"
        transform="translate(-150.25 -30.97)" style="fill:#ffb573" />
    <polygon points="330.43 301.89 340.12 314.34 328.79 326.82 319.62 310.41 330.43 301.89"
        style="fill:#ffb573" />
    <path
        d="M477.31,363.47h15.25a1.72,1.72,0,0,0,1.71-1.58l3.2-36.57a1.72,1.72,0,0,0-1.71-1.88H480.51a1.72,1.72,0,0,0-1.72,1.57l-3.2,36.58A1.72,1.72,0,0,0,477.31,363.47Z"
        transform="translate(-150.25 -30.97)" style="fill:#407bff" />
    <polygon points="327.21 328.83 342.49 328.83 345.35 296.14 330.07 296.14 327.21 328.83"
        style="fill:#fff;opacity:0.30000000000000004" />
    <path
        d="M476.48,355.17h0l2.71-1.39a16.92,16.92,0,0,0,3.78-2.65l.5-1.81a2.57,2.57,0,0,0-2.89-1.16l-2.25.61-11.19.85-.28,4.71,3.27,5.07,1.13,0A5.08,5.08,0,0,0,476.48,355.17Z"
        transform="translate(-150.25 -30.97)" style="fill:#ffb573" />
    <path
        d="M368.19,345.51c7.76-1.41,62.51,46.07,62.51,46.07l-16.23,23.81s-59.88-41.69-58-51.76C358.34,353.14,356.87,347.58,368.19,345.51Z"
        transform="translate(-150.25 -30.97)" style="fill:#263238" />
    <path d="M375.09,360.78l-.59,24.92c6.22,4.83,28.66,22,28.66,22Z"
        transform="translate(-150.25 -30.97)" style="opacity:0.2;isolation:isolate" />
    <path
        d="M379.91,367.45c10.5,17.83-2.33,32.9-13,86.23l-69.2.18c1.12-28.74,1-52-11.27-108.51A9.55,9.55,0,0,1,293.66,334a9.31,9.31,0,0,1,2-.23c5.72,0,12.91.21,20.2.95a252.42,252.42,0,0,1,34.27,5.18c9.61,2.31,11.94,3.59,18,5.63C371.74,346.72,376,356.41,379.91,367.45Z"
        transform="translate(-150.25 -30.97)" style="fill:#263238" />
    <path d="M184.64,419.21c-3.14,4.63-19,1.5-19,1.5l-3.36-19.65,19.46,7.81Z"
        transform="translate(-150.25 -30.97)" style="fill:#ffb573" />
    <path
        d="M166.18,400l3,20.41-11.71,1.76a2.61,2.61,0,0,1-2.76-2l-4.47-14.62a1.34,1.34,0,0,1,1-1.59Z"
        transform="translate(-150.25 -30.97)" style="fill:#ffb573" />
    <path
        d="M161,409.31l6.68,1.18,6.29-4.75L171.51,404a8.28,8.28,0,0,1-3.26-4.9,34.42,34.42,0,0,1-.85-6.32l0-.7a2.9,2.9,0,0,0-2.44-2.49l-1.66,1.23c-1.05,2.26-.3,4.87-.43,6.63l-.26,3.43L159.91,402Z"
        transform="translate(-150.25 -30.97)" style="fill:#ffb573" />
    <path d="M289.75,341.46l-39.17,53.89-72,14.14v11.8s67.61,5,82.78-3.84S302.07,355,302.07,355Z"
        transform="translate(-150.25 -30.97)" style="fill:#ffb573" />
    <path
        d="M289.28,237.93c-16.42-5.51-35.5,4.69-43,20.3s-4.88,34.77,3.58,49.89c2.55,4.56,5.6,8.86,7.68,13.66S260.64,332.09,259,337s-3.43,8.12-9.56,7.31c0,0-.08-3.39,2.34-3h0s-5,2.76-6.91,1c2.24,3.48,8.26,2.21,10.2-1.46,2.89-5.5-2.43-12.93-8.64-12.86s-11.25,6.34-11,12.55,4.76,11.72,10.43,14.26a7.73,7.73,0,0,1-8.36-4.46c2.81,7.37,12,10.63,19.77,9.18s14.33-6.43,20.41-11.46c8.2-6.79,16.75-15.37,16.5-26-.2-7.93-5.29-14.74-9.57-21.41s-8-14.85-5.31-22.29c2.3-6.32,8.54-10.12,14.06-14,4-2.76,12.05-8.92,11.1-14.72C303.46,244.26,293.94,239.49,289.28,237.93Z"
        transform="translate(-150.25 -30.97)" style="fill:#263238" />
    <path
        d="M252.25,422.22l-10.84-28.71,2.48.2a10.5,10.5,0,0,0,10-5.33c8.24-14.74,29.66-52.16,35.69-54,8.59-2.55,17.43,4.33,20.77,14.47,2.45,7.48-22.73,39.52-34.42,57.74C265.62,422.71,252.25,422.22,252.25,422.22Z"
        transform="translate(-150.25 -30.97)" style="fill:#263238" />
    <path
        d="M297.41,450.35l-1.91,6.73c-.26.52.35,1.06,1.22,1.05l71.42-.1c.68,0,1.24-.34,1.28-.75l.67-6.75c0-.45-.55-.86-1.29-.84l-70.17.09A1.34,1.34,0,0,0,297.41,450.35Z"
        transform="translate(-150.25 -30.97)" style="fill:#407bff" />
    <path
        d="M297.41,450.35l-1.91,6.73c-.26.52.35,1.06,1.22,1.05l71.42-.1c.68,0,1.24-.34,1.28-.75l.67-6.75c0-.45-.55-.86-1.29-.84l-70.17.09A1.34,1.34,0,0,0,297.41,450.35Z"
        transform="translate(-150.25 -30.97)" style="fill:#fff;opacity:0.5;isolation:isolate" />
    <path
        d="M311,458.75H309c-.39,0-.71-.21-.68-.45l.94-8.76c0-.25.38-.46.79-.45l2.08,0c.39,0,.71.21.67.48l-.93,8.74C311.8,458.52,311.44,458.75,311,458.75Z"
        transform="translate(-150.25 -30.97)" style="fill:#407bff" />
    <path
        d="M362.6,458.74h-2.07c-.39,0-.71-.21-.68-.45l.93-8.74c0-.27.39-.48.78-.47h2.07c.4,0,.72.21.68.46l-.93,8.74C363.36,458.54,363,458.74,362.6,458.74Z"
        transform="translate(-150.25 -30.97)" style="fill:#407bff" />
    <path
        d="M339,458.69h-2.07c-.39,0-.72-.2-.68-.45l.93-8.74c0-.27.38-.47.78-.47H340c.39,0,.71.21.68.45l-.93,8.74C339.75,458.49,339.41,458.7,339,458.69Z"
        transform="translate(-150.25 -30.97)" style="fill:#407bff" />
    <path
        d="M319.13,297c2.19,11.27,4.35,31.64-3.3,37.78,0,0,3.05,11.57,23.53,14.64C362,352.86,350.1,340,350.1,340c-12.3-4.87-12-13.77-9.88-22Z"
        transform="translate(-150.25 -30.97)" style="fill:#ffb573" />
    <path
        d="M315.9,334.7a218.78,218.78,0,0,1,32.45,4.51l15.48,4.59c2.77,5.54-1.74,16.93-14.71,19.08,0,0-32.65,4.5-42.29-29.05Z"
        transform="translate(-150.25 -30.97)" style="fill:#ffb573" />
    <path
        d="M327.73,305.6,340.2,318a31.66,31.66,0,0,0-1,5.87c-4.71-1.37-12.28-6.57-12.8-11.54A17,17,0,0,1,327.73,305.6Z"
        transform="translate(-150.25 -30.97)" style="opacity:0.2;isolation:isolate" />
    <path
        d="M305.31,282.77c5.54,17.52,7.5,25.06,18.85,32,16.95,10.36,37.34-.26,37.07-19.06-.16-16.93-9.17-42.72-28.42-45.48a25.06,25.06,0,0,0-27.5,32.59Z"
        transform="translate(-150.25 -30.97)" style="fill:#ffb573" />
    <path d="M347.1,280a39.62,39.62,0,0,0,7.07,8.32,6.51,6.51,0,0,1-5,2Z"
        transform="translate(-150.25 -30.97)" style="fill:#ed893e" />
    <path
        d="M345.13,299.74a13.65,13.65,0,0,0,2.1-.4.4.4,0,0,0,.3-.5v0a.46.46,0,0,0-.52-.32,11.71,11.71,0,0,1-10.47-2.15.44.44,0,0,0-.63,0,.45.45,0,0,0,0,.63A12.46,12.46,0,0,0,345.13,299.74Z"
        transform="translate(-150.25 -30.97)" style="fill:#263238" />
    <path
        d="M301.26,251.93c-11,12.7-15.92,47.88,16.28,57.69,5.38-4.26-3.31-12-7-21.84-2.42-6.42,9.85-18.41,14.64-23.32s9.19-12,15.95-10.89c1.77.3,3.66.88,5.29.14,5.36-2.42,2.76-5.63.07-7.87-4-3.3-9.54-4.8-14.59-5.35C320.68,239.28,308.72,243.31,301.26,251.93Z"
        transform="translate(-150.25 -30.97)" style="fill:#263238" />
    <path
        d="M337,247.67c12.93,10.78-4.2,11.05-13.19,17.88-8.68,6.56-2.59,17.31-17.27,22.29-12,3.51-14.75,1.4-18.07-.92,0,0,13.59-1.71,15.58-17C305.09,262.1,322.22,235.16,337,247.67Z"
        transform="translate(-150.25 -30.97)" style="fill:#263238" />
    <path
        d="M303.36,297.48a13.43,13.43,0,0,0,8.61,5.59c4.64.82,6.42-3.43,4.82-7.57-1.5-3.72-5.71-8.63-10.19-7.57a6,6,0,0,0-4.34,7.33A5.93,5.93,0,0,0,303.36,297.48Z"
        transform="translate(-150.25 -30.97)" style="fill:#ffb573" />
    <path
        d="M334.78,248.76c2.51,6.37,9.73,5.53,15.08,12.19,3.29,4.08,9.74-8.63,1-13.67S330.85,238.78,334.78,248.76Z"
        transform="translate(-150.25 -30.97)" style="fill:#263238" />
    <path
        d="M327.18,275.67a.85.85,0,0,0,.88-.51c1.7-3.78,6.79-4.73,6.84-4.73a.87.87,0,1,0-.32-1.72c-.26,0-6.07,1.22-8.13,5.78a.87.87,0,0,0,.42,1.15h0Z"
        transform="translate(-150.25 -30.97)" style="fill:#263238" />
    <path
        d="M354.08,268.06a.84.84,0,0,0,.77-.39.87.87,0,0,0-.22-1.21h0a8.75,8.75,0,0,0-7.95-1,.88.88,0,0,0,.69,1.62h0a6.86,6.86,0,0,1,6.28.87A1.39,1.39,0,0,0,354.08,268.06Z"
        transform="translate(-150.25 -30.97)" style="fill:#263238" />
    <path
        d="M439.19,381.38l-12.11,6.9-12.61,27.11s12.18,7.75,21.77,1.48S439.19,381.38,439.19,381.38Z"
        transform="translate(-150.25 -30.97)" style="fill:#407bff" />
    <path
        d="M439.19,381.38l-12.11,6.9-12.61,27.11s12.18,7.75,21.77,1.48S439.19,381.38,439.19,381.38Z"
        transform="translate(-150.25 -30.97)" style="fill:#fff;opacity:0.5;isolation:isolate" />
    <path
        d="M227.05,389.76l14.35,4.06L255,422s-10.94,10.11-22.76.45C223.37,415.16,227.05,389.76,227.05,389.76Z"
        transform="translate(-150.25 -30.97)" style="fill:#407bff" />
    <g style="opacity:0.5;isolation:isolate">
        <path
            d="M227.05,389.76l14.35,4.06L255,422s-10.94,10.11-22.76.45C223.37,415.16,227.05,389.76,227.05,389.76Z"
            transform="translate(-150.25 -30.97)" style="fill:#fff" />
    </g>
    <path
        d="M353.25,275.07c1-.18,2,.93,2.3,2.47s-.33,2.94-1.33,3.1-2-.93-2.3-2.46S352.26,275.26,353.25,275.07Z"
        transform="translate(-150.25 -30.97)" style="fill:#263238" />
    <path d="M356.31,273.56l-3.5,1.72C354.93,276.77,356.31,273.56,356.31,273.56Z"
        transform="translate(-150.25 -30.97)" style="fill:#263238" />
    <path
        d="M335.92,278.62c1-.18,2,.93,2.3,2.46s-.33,2.94-1.33,3.11-2-.93-2.3-2.46S334.93,278.81,335.92,278.62Z"
        transform="translate(-150.25 -30.97)" style="fill:#263238" />
    <path d="M339,277.11l-3.5,1.72C337.6,280.32,339,277.11,339,277.11Z"
        transform="translate(-150.25 -30.97)" style="fill:#263238" />
    <path
        d="M248.32,357.84a15.08,15.08,0,0,1-5.7-1.08c-6.41-2.62-9.4-9.3-8.19-18.33a1,1,0,1,1,2,.28c-1.07,8,1.45,13.9,6.93,16.13,5.91,2.42,13.79,0,17.91-5.5,5.18-6.92,3.51-16.73-4.61-26.92-21.2-26.6-19.78-40.75-16.78-51.92,4.35-16.23,17.09-34.83,53.1-31.25a1,1,0,0,1,.93,1.13,1,1,0,0,1-1.13.93c-34.55-3.44-46.76,14.28-50.9,29.73-3,11.17-4.2,24.24,16.4,50.09,12.42,15.59,7.39,25.79,4.65,29.45A18.73,18.73,0,0,1,248.32,357.84Z"
        transform="translate(-150.25 -30.97)" style="fill:#263238" />
    <path
        d="M353.57,231.91l12.09-9.29a1.73,1.73,0,0,0,.41-2.3l-19.75-30.95a1.73,1.73,0,0,0-2.51-.44l-12.09,9.29a1.73,1.73,0,0,0-.4,2.3l19.75,30.95A1.72,1.72,0,0,0,353.57,231.91Z"
        transform="translate(-150.25 -30.97)" style="fill:#407bff" />
    <polygon points="201.21 197.94 213.33 188.63 195.68 160.96 183.56 170.27 201.21 197.94"
        style="fill:#fff;opacity:0.30000000000000004" />
</svg>